<svg viewBox="38.02702702702703 61.31249999999994 325.94594594594594 442.8125000000001" fill="none" xmlns="http://www.w3.org/2000/svg" xmlns:xlink="http://www.w3.org/1999/xlink" overflow="visible" width="325.94594594594594px" height="442.8125000000001px"><g id="Master/Composition/Wireframe"><g id="UI"><g id="Cards"><g id="Group"><g id="Group 7"><rect id="Rectangle 2" x="214.426" y="171.112" width="44.7" height="61.1583" rx="20" fill="#BAEBFF"/><rect id="Rectangle 2 Copy 9" x="214.426" y="383.042" width="44.7" height="80.2703" rx="20" fill="#B8DBE9"/><rect id="Rectangle 2 Copy 8" x="318.3" y="307.869" width="44.7" height="61.1583" rx="20" fill="#B8DBE9"/><rect id="Rectangle 2 Copy" x="266.363" y="171.112" width="44.7" height="89.6139" rx="20" fill="#8AB8F1"/><rect id="Rectangle 2 Copy 4" x="318.3" y="227.598" width="44.7" height="70.5019" rx="20" fill="#B8DBE9"/><rect id="Rectangle 2 Copy 5" x="266.363" y="270.07" width="44.7" height="47.1429" rx="20" fill="#B8DBE9"/><rect id="Rectangle 2 Copy 2" x="318.3" y="171.112" width="44.7" height="47.1429" rx="20" fill="#B8DBE9"/><rect id="Rectangle 2 Copy 6" x="214.426" y="298.525" width="44.7" height="75.1737" rx="20" fill="#8AB8F1"/><rect id="Rectangle 2 Copy 3" x="214.426" y="241.614" width="44.7" height="47.1429" rx="20" fill="#B8DBE9"/><rect id="Rectangle 2 Copy 12" x="318.3" y="434.857" width="44.7" height="47.1429" rx="20" fill="#8AB8F1"/><path id="Rectangle" fill-rule="evenodd" clip-rule="evenodd" d="M214 154.548C214 153.141 215.141 152 216.548 152H230.609C232.016 152 233.157 153.141 233.157 154.548V154.548C233.157 155.956 232.016 157.097 230.609 157.097H216.548C215.141 157.097 214 155.956 214 154.548V154.548Z" fill="#B8DBE9"/><path id="Rectangle Copy" opacity="0.3" fill-rule="evenodd" clip-rule="evenodd" d="M242.523 154.548C242.523 153.141 243.664 152 245.071 152H259.132C260.539 152 261.68 153.141 261.68 154.548V154.548C261.68 155.956 260.539 157.097 259.132 157.097H245.071C243.664 157.097 242.523 155.956 242.523 154.548V154.548Z" fill="#B8DBE9"/><path id="Rectangle Copy 2" opacity="0.3" fill-rule="evenodd" clip-rule="evenodd" d="M270.62 154.548C270.62 153.141 271.761 152 273.168 152H287.229C288.636 152 289.777 153.141 289.777 154.548V154.548C289.777 155.956 288.636 157.097 287.229 157.097H273.168C271.761 157.097 270.62 155.956 270.62 154.548V154.548Z" fill="#B8DBE9"/><path id="Rectangle Copy 3" opacity="0.3" fill-rule="evenodd" clip-rule="evenodd" d="M299.143 154.548C299.143 153.141 300.284 152 301.691 152H315.752C317.159 152 318.3 153.141 318.3 154.548V154.548C318.3 155.956 317.159 157.097 315.752 157.097H301.691C300.284 157.097 299.143 155.956 299.143 154.548V154.548Z" fill="#B8DBE9"/><path id="Rectangle Copy 4" opacity="0.3" fill-rule="evenodd" clip-rule="evenodd" d="M327.24 154.548C327.24 153.141 328.381 152 329.788 152H343.849C345.256 152 346.397 153.141 346.397 154.548V154.548C346.397 155.956 345.256 157.097 343.849 157.097H329.788C328.381 157.097 327.24 155.956 327.24 154.548V154.548Z" fill="#B8DBE9"/></g></g></g><g id="Profile"><g id="Group 6"><path id="Rectangle_2" fill-rule="evenodd" clip-rule="evenodd" d="M89.8882 86.6077C89.8882 73.6092 100.426 63 113.424 63V63C126.422 63 136.96 73.6092 136.96 86.6077V86.6077C136.96 99.6061 126.422 110.215 113.424 110.215V110.215C100.426 110.215 89.8882 99.6061 89.8882 86.6077V86.6077Z" fill="#B8DBE9"/><path id="Shape" fill-rule="evenodd" clip-rule="evenodd" d="M110.482 82.201C110.482 81.5053 111.051 80.9419 111.753 80.9419H115.566C116.268 80.9419 116.837 81.5053 116.837 82.201V82.8305H118.743C119.445 82.8305 120.014 83.3939 120.014 84.0896V91.0145C120.014 91.7101 119.445 92.2736 118.743 92.2736H108.576C107.873 92.2736 107.305 91.7101 107.305 91.0145V84.0896C107.305 83.3939 107.873 82.8305 108.576 82.8305H110.482V82.201ZM117.19 87.316C117.19 85.6237 115.712 84.247 113.895 84.247C112.078 84.247 110.6 85.6237 110.6 87.316C110.6 89.0082 112.078 90.385 113.895 90.385C115.712 90.385 117.19 89.0082 117.19 87.316ZM117.896 84.247C118.286 84.247 118.602 84.5643 118.602 84.9552C118.602 85.3461 118.286 85.6634 117.896 85.6634C117.506 85.6634 117.19 85.3461 117.19 84.9552C117.19 84.5643 117.506 84.247 117.896 84.247ZM112.012 87.0799C112.012 86.0368 112.855 85.1913 113.895 85.1913C114.935 85.1913 115.778 86.0368 115.778 87.0799C115.778 88.1229 114.935 88.9685 113.895 88.9685C112.855 88.9685 112.012 88.1229 112.012 87.0799Z" fill="#70A2DE"/><path id="Rectangle_3" fill-rule="evenodd" clip-rule="evenodd" d="M75.894 126.592C75.894 125.3 76.9415 124.252 78.2335 124.252H92.3196C93.6117 124.252 94.6591 125.3 94.6591 126.592V126.592C94.6591 127.884 93.6117 128.931 92.3196 128.931H78.2335C76.9415 128.931 75.894 127.884 75.894 126.592V126.592Z" fill="#8AB8F1"/><path id="Rectangle Copy_2" opacity="0.3" fill-rule="evenodd" clip-rule="evenodd" d="M104.042 126.592C104.042 125.3 105.089 124.252 106.381 124.252H120.467C121.759 124.252 122.807 125.3 122.807 126.592V126.592C122.807 127.884 121.759 128.931 120.467 128.931H106.381C105.089 128.931 104.042 127.884 104.042 126.592V126.592Z" fill="#B8DBE9"/><path id="Rectangle Copy 2_2" opacity="0.3" fill-rule="evenodd" clip-rule="evenodd" d="M132.189 126.592C132.189 125.3 133.237 124.252 134.529 124.252H148.615C149.907 124.252 150.954 125.3 150.954 126.592V126.592C150.954 127.884 149.907 128.931 148.615 128.931H134.529C133.237 128.931 132.189 127.884 132.189 126.592V126.592Z" fill="#B8DBE9"/><path id="Rectangle_4" fill-rule="evenodd" clip-rule="evenodd" d="M172.905 178.507C172.905 177.203 173.961 176.147 175.265 176.147H184.64C185.943 176.147 187 177.203 187 178.507V178.507C187 179.81 185.943 180.867 184.64 180.867H175.265C173.961 180.867 172.905 179.81 172.905 178.507V178.507Z" fill="#B8DBE9"/><path id="Rectangle_5" fill-rule="evenodd" clip-rule="evenodd" d="M168.206 192.667C168.206 191.364 169.263 190.307 170.566 190.307H184.64C185.943 190.307 187 191.364 187 192.667V192.667C187 193.971 185.943 195.027 184.64 195.027H170.566C169.263 195.027 168.206 193.971 168.206 192.667V192.667Z" fill="#B8DBE9"/><path id="Rectangle_6" fill-rule="evenodd" clip-rule="evenodd" d="M177.603 206.828C177.603 205.524 178.66 204.468 179.963 204.468H184.64C185.943 204.468 187 205.524 187 206.828V206.828C187 208.131 185.943 209.188 184.64 209.188H179.963C178.66 209.188 177.603 208.131 177.603 206.828V206.828Z" fill="#B8DBE9"/><path id="Rectangle_7" fill-rule="evenodd" clip-rule="evenodd" d="M182.302 220.988C182.302 219.691 183.353 218.628 184.651 218.628V218.628C185.948 218.628 187 219.691 187 220.988V220.988C187 222.286 185.948 223.348 184.651 223.348V223.348C183.353 223.348 182.302 222.286 182.302 220.988V220.988Z" fill="#B8DBE9"/><path id="Rectangle_8" fill-rule="evenodd" clip-rule="evenodd" d="M172.905 235.149C172.905 233.845 173.961 232.789 175.265 232.789H184.64C185.943 232.789 187 233.845 187 235.149V235.149C187 236.452 185.943 237.509 184.64 237.509H175.265C173.961 237.509 172.905 236.452 172.905 235.149V235.149Z" fill="#B8DBE9"/><path id="Rectangle_9" fill-rule="evenodd" clip-rule="evenodd" d="M177.603 249.309C177.603 248.006 178.66 246.949 179.963 246.949H184.64C185.943 246.949 187 248.006 187 249.309V249.309C187 250.612 185.943 251.669 184.64 251.669H179.963C178.66 251.669 177.603 250.612 177.603 249.309V249.309Z" fill="#B8DBE9"/><path id="Rectangle_10" fill-rule="evenodd" clip-rule="evenodd" d="M182.302 263.47C182.302 262.172 183.353 261.11 184.651 261.11V261.11C185.948 261.11 187 262.172 187 263.47V263.47C187 264.767 185.948 265.83 184.651 265.83V265.83C183.353 265.83 182.302 264.767 182.302 263.47V263.47Z" fill="#8AB8F1"/><path id="Rectangle_11" fill-rule="evenodd" clip-rule="evenodd" d="M39 320.112C39 318.808 40.0566 317.751 41.3601 317.751H121.211C122.515 317.751 123.571 318.808 123.571 320.112V320.112C123.571 321.415 122.515 322.472 121.211 322.472H41.3601C40.0566 322.472 39 321.415 39 320.112V320.112Z" fill="#B8DBE9"/><path id="Rectangle_12" fill-rule="evenodd" clip-rule="evenodd" d="M177.603 277.63C177.603 276.327 178.66 275.27 179.963 275.27H184.64C185.943 275.27 187 276.327 187 277.63V277.63C187 278.934 185.943 279.99 184.64 279.99H179.963C178.66 279.99 177.603 278.934 177.603 277.63V277.63Z" fill="#8AB8F1"/><path id="Rectangle_13" fill-rule="evenodd" clip-rule="evenodd" d="M172.905 291.79C172.905 290.487 173.961 289.43 175.265 289.43H184.64C185.943 289.43 187 290.487 187 291.79V291.79C187 293.094 185.943 294.151 184.64 294.151H175.265C173.961 294.151 172.905 293.094 172.905 291.79V291.79Z" fill="#B8DBE9"/><path id="Rectangle_14" fill-rule="evenodd" clip-rule="evenodd" d="M39 305.951C39 304.648 40.0566 303.591 41.3601 303.591H74.2272C75.5307 303.591 76.5873 304.648 76.5873 305.951V305.951C76.5873 307.255 75.5307 308.311 74.2272 308.311H41.3601C40.0566 308.311 39 307.255 39 305.951V305.951Z" fill="#BAEBFF"/><path id="Rectangle_15" fill-rule="evenodd" clip-rule="evenodd" d="M39 291.79C39 290.487 40.0566 289.43 41.3601 289.43H60.132C61.4354 289.43 62.4921 290.487 62.4921 291.79V291.79C62.4921 293.094 61.4354 294.151 60.132 294.151H41.3601C40.0566 294.151 39 293.094 39 291.79V291.79Z" fill="#8AB8F1"/><path id="Rectangle_16" fill-rule="evenodd" clip-rule="evenodd" d="M39 277.63C39 276.327 40.0566 275.27 41.3601 275.27H55.4336C56.737 275.27 57.7937 276.327 57.7937 277.63V277.63C57.7937 278.934 56.737 279.99 55.4336 279.99H41.3601C40.0566 279.99 39 278.934 39 277.63V277.63Z" fill="#B8DBE9"/><path id="Rectangle_17" fill-rule="evenodd" clip-rule="evenodd" d="M39 206.828C39 205.524 40.0566 204.468 41.3601 204.468H74.2272C75.5307 204.468 76.5873 205.524 76.5873 206.828V206.828C76.5873 208.131 75.5307 209.188 74.2272 209.188H41.3601C40.0566 209.188 39 208.131 39 206.828V206.828Z" fill="#B8DBE9"/><path id="Rectangle_18" fill-rule="evenodd" clip-rule="evenodd" d="M39 192.667C39 191.364 40.0566 190.307 41.3601 190.307H93.0209C94.3243 190.307 95.381 191.364 95.381 192.667V192.667C95.381 193.971 94.3243 195.027 93.0209 195.027H41.3601C40.0566 195.027 39 193.971 39 192.667V192.667Z" fill="#BAEBFF"/><path id="Rectangle_19" fill-rule="evenodd" clip-rule="evenodd" d="M39 178.507C39 177.203 40.0566 176.147 41.3601 176.147H60.132C61.4354 176.147 62.4921 177.203 62.4921 178.507V178.507C62.4921 179.81 61.4354 180.867 60.132 180.867H41.3601C40.0566 180.867 39 179.81 39 178.507V178.507Z" fill="#B8DBE9"/><rect id="Rectangle 2_2" x="39" y="148.073" width="148" height="18.716" rx="9.35799" fill="#8AB8F1"/><rect id="Rectangle 2_3" x="39" y="361.18" width="68.2751" height="23.8203" rx="11.9102" fill="#B8DBE9"/></g></g></g><g id="Character"><g id="Head/Front" transform="rotate(-27 69.7224 108.199) translate(69.7224 108.199) scale(1.0808823529411764 1.0288461538461537)"><g id="Head/Front/Pony"><g id="Head"><path id="SKIN" fill-rule="evenodd" clip-rule="evenodd" d="M73.9354 75.2443C80.411 79.1475 86.7736 81.0333 89.7603 80.2635C97.2496 78.333 97.9382 50.9351 92.1433 40.1339C86.3485 29.3328 56.5583 24.625 55.0568 46.0255C54.5356 53.4529 57.6544 60.0814 62.2623 65.4901L54 104H78L73.9354 75.2443Z" fill="#57331f"/></g><path id="hair" fill-rule="evenodd" clip-rule="evenodd" d="M95 30C95 35.3411 90.8127 39.7042 85.5417 39.9856C82.1761 41.0241 77.7404 41.7545 72.8418 41.9713C74.2102 45.1765 75 48.9547 75 53C75 53.25 74.997 53.4989 74.991 53.7468C73.9947 52.0848 72.3546 51 70.5 51C67.4624 51 65 53.9101 65 57.5C65 61.0899 67.4624 64 70.5 64C71.4765 64 72.3936 63.6992 73.1885 63.1718C70.7153 69.6293 65.9601 74 60.5 74C55.2782 74 50.7011 70.0024 48.1481 64.005C43.7778 66.4844 37.928 68 31.5 68C17.969 68 7 61.2843 7 53C7 44.7157 17.969 38 31.5 38C37.928 38 43.7778 39.5156 48.1481 41.995C49.1958 39.5337 50.5845 37.4092 52.2187 35.7597C53.608 32.8376 61.806 30.3523 71.7906 30.0037C72.8822 29.9655 73.9542 29.9544 75 29.9684C75.0171 24.4601 79.4877 20 85 20C90.5229 20 95 24.4772 95 30Z" fill="#4a312c"/></g></g><g id="Lower Body/Standing" transform="translate(44 252) scale(1.08 1.0376569037656904)"><g id="Lower Body/Standing/Shorts"><path id="SKIN" fill-rule="evenodd" clip-rule="evenodd" d="M128 0L165.631 123.024L183.86 227.648H198.153L178.891 0H128Z" fill="#57331f"/><path id="Shadow" fill-rule="evenodd" clip-rule="evenodd" d="M128 0L165.631 123.024L183.86 227.648H198.153L178.891 0H128Z" fill="black" fill-opacity="0.1"/><path id="SKIN" fill-rule="evenodd" clip-rule="evenodd" d="M114.538 0C117.094 67.5469 114.086 102.389 113.514 108.526C112.942 114.663 105.108 154.455 86.5637 229.708L101.794 224.478C131.102 155.459 141.089 119.589 144.45 110.526C147.812 101.463 156.739 64.6208 171.233 0H114.538Z" fill="#57331f"/><g id="Left [shoe]"><path id="shoe" fill-rule="evenodd" clip-rule="evenodd" d="M89.4496 223.284C88.3779 222.813 87.1043 223.29 86.7051 224.391C85.977 226.398 85 229.409 85 231.106C85 233.811 85.9012 239 85.9012 239C89.0392 239 142.303 239 142.303 239C142.303 239 144.502 231.732 139.765 231.152C135.028 230.573 131.895 230.106 131.895 230.106L105.68 218.419C105.165 218.189 104.563 218.43 104.348 218.951L102.663 223.039C102.663 223.039 98.2782 225.085 95.5367 225.085C93.8677 225.085 91.2457 224.074 89.4496 223.284Z" fill="#E4E4E4"/></g><g id="Right [shoe]"><path id="shoe_2" fill-rule="evenodd" clip-rule="evenodd" d="M183.45 223.284C182.378 222.813 181.104 223.29 180.705 224.391C179.977 226.398 179 229.409 179 231.106C179 233.811 179.901 239 179.901 239C183.039 239 236.303 239 236.303 239C236.303 239 238.502 231.732 233.765 231.152C229.028 230.573 225.895 230.106 225.895 230.106L199.68 218.419C199.165 218.189 198.563 218.43 198.348 218.951L196.663 223.039C196.663 223.039 192.278 225.085 189.537 225.085C187.868 225.085 185.246 224.074 183.45 223.284Z" fill="#E4E4E4"/></g><path id="Bottom" fill-rule="evenodd" clip-rule="evenodd" d="M123 0L139 62.6795H187.87L180.584 0H123Z" fill="#1820bf"/><path id="Bottom" fill-rule="evenodd" clip-rule="evenodd" d="M114 0C106.103 23.6708 111 62.6795 111 62.6795H160.87L174.584 0L114 0Z" fill="#2b44ff"/></g></g><g id="Upper Body" transform="rotate(-14 40.7686 185.373) translate(40.7686 185.373) scale(1.08203125 1.032085561497326)"><g id="Upper Body/Long Sleeve"><path id="SKIN" fill-rule="evenodd" clip-rule="evenodd" d="M231.483 59.9252L192 65.3108L199.084 83L231.121 70.2987C244.93 71.6611 251.607 71.3331 251.153 69.3149C250.77 67.6131 249.302 67.0993 247.95 66.6261C246.897 66.2574 245.914 65.9134 245.569 65.0515C244.78 63.0832 249.269 59.0033 253.693 55.3152C258.117 51.6271 255.148 50.9484 253.281 51.0029C246.647 52.5579 239.381 55.532 231.483 59.9252ZM39.398 156.908C42.3285 150.963 67.9699 74.4497 67.9699 74.4497L89.8673 74.5319C89.8673 74.5319 53.8506 155.583 52.308 159.406C50.3041 164.372 53.708 171.587 56.0162 176.48C56.3733 177.237 56.7041 177.938 56.9847 178.567C53.782 180 52.2435 178.268 50.6216 176.442C48.7896 174.379 46.8512 172.197 42.288 174.319C40.525 175.14 38.8568 176.109 37.2269 177.057C31.5969 180.329 26.4249 183.336 19.3891 178.994C18.2737 178.306 17.0514 175.715 20.0047 173.69C27.3624 168.645 37.9654 159.815 39.398 156.908Z" fill="#3d2216"/><path id="Clothes Back" fill-rule="evenodd" clip-rule="evenodd" d="M127.949 5.00001L145.094 6.14217C149.317 44.3434 172.316 68.4728 223.811 60.304L230.652 109.499C182.523 115.719 140.313 96.4498 131.662 44.2785C129.423 30.7729 127.655 16.7178 127.949 5.00001Z" fill="#e87613"/><path id="Clothes" fill-rule="evenodd" clip-rule="evenodd" d="M42.4016 147C54.3053 83.664 79.4301 34.664 117.776 0H119.421H119.477L119.491 0.0159384L145.468 5.96528C145.468 37.1692 152.41 60.4845 159.084 82.9002C161.966 92.5803 164.798 102.093 167 112H96.8436C95.8554 123.351 95.2485 135.018 94.9322 147H42.4016Z" fill="#ffa434"/><path id="Shade" fill-rule="evenodd" clip-rule="evenodd" d="M96.8438 112C98.8558 88.8905 102.449 67.0899 108.388 46.5981C107.086 68.5123 106.725 95.6979 111.103 112H96.8438Z" fill="black" fill-opacity="0.1"/></g></g></g><g id="Foreground"><rect id="Rectangle 2 Copy 7" opacity="0.905855" x="267" y="326" width="44" height="61" rx="20" fill="#B8DBE9"/><rect id="Rectangle 2 Copy 10" opacity="0.865792" x="267" y="397" width="44" height="61" rx="20" fill="#6DD2FC"/><rect id="Rectangle 2 Copy 11" x="319" y="378" width="44" height="47" rx="20" fill="#BAEBFF"/><path id="Rectangle_20" fill-rule="evenodd" clip-rule="evenodd" d="M182 319.5C182 318.119 183.119 317 184.5 317V317C185.881 317 187 318.119 187 319.5V319.5C187 320.881 185.881 322 184.5 322V322C183.119 322 182 320.881 182 319.5V319.5Z" fill="#B8DBE9"/><path id="Rectangle_21" fill-rule="evenodd" clip-rule="evenodd" d="M173 305.5C173 304.119 174.119 303 175.5 303H184.5C185.881 303 187 304.119 187 305.5V305.5C187 306.881 185.881 308 184.5 308H175.5C174.119 308 173 306.881 173 305.5V305.5Z" fill="#B8DBE9"/><path id="Rectangle_22" opacity="0.890044" fill-rule="evenodd" clip-rule="evenodd" d="M39 263.5C39 262.119 40.1193 261 41.5 261H120.5C121.881 261 123 262.119 123 263.5V263.5C123 264.881 121.881 266 120.5 266H41.5C40.1193 266 39 264.881 39 263.5V263.5Z" fill="#B8DBE9"/><path id="Rectangle_23" fill-rule="evenodd" clip-rule="evenodd" d="M39 249.5C39 248.119 40.1193 247 41.5 247H69.5C70.8807 247 72 248.119 72 249.5V249.5C72 250.881 70.8807 252 69.5 252H41.5C40.1193 252 39 250.881 39 249.5V249.5Z" fill="#B8DBE9"/><path id="Rectangle_24" fill-rule="evenodd" clip-rule="evenodd" d="M39 234.5C39 233.119 40.1193 232 41.5 232H55.5C56.8807 232 58 233.119 58 234.5V234.5C58 235.881 56.8807 237 55.5 237H41.5C40.1193 237 39 235.881 39 234.5V234.5Z" fill="#B8DBE9"/><path id="Rectangle_25" opacity="0.890044" fill-rule="evenodd" clip-rule="evenodd" d="M39 220.5C39 219.119 40.1193 218 41.5 218H106.5C107.881 218 109 219.119 109 220.5V220.5C109 221.881 107.881 223 106.5 223H41.5C40.1193 223 39 221.881 39 220.5V220.5Z" fill="#8AB8F1"/><rect id="Rectangle 2_4" opacity="0.908343" x="119" y="361" width="68" height="24" rx="12" fill="#77D6FE"/></g></g></svg>